<?xml version="1.0" encoding="UTF-8" standalone="no"?><!DOCTYPE svg PUBLIC "-//W3C//DTD SVG 1.1//EN" "http://www.w3.org/Graphics/SVG/1.1/DTD/svg11.dtd"><svg width="100%" height="100%" viewBox="0 0 100 100" version="1.1" xmlns="http://www.w3.org/2000/svg" xmlns:xlink="http://www.w3.org/1999/xlink" xml:space="preserve" xmlns:serif="http://www.serif.com/" style="fill-rule:evenodd;clip-rule:evenodd;stroke-linejoin:round;stroke-miterlimit:2;"><g><rect x="0" y="0" width="100" height="100" style="fill:none;"/></g><g><path d="M78.072,95.988c-5.444,5.277 -11.388,4.444 -17.109,1.944c-6.055,-2.555 -11.61,-2.666 -17.998,0c-7.999,3.444 -12.221,2.444 -16.998,-1.944c-27.108,-27.941 -23.108,-70.491 7.666,-72.047c7.499,0.389 12.72,4.111 17.109,4.444c6.555,-1.333 12.832,-5.166 19.831,-4.666c8.387,0.667 14.72,4 18.886,9.999c-17.331,10.388 -13.22,33.218 2.666,39.606c-3.166,8.332 -7.276,16.609 -14.109,22.719l0.056,-0.055Zm-27.886,-72.38c-0.833,-12.387 9.221,-22.608 20.775,-23.608c1.611,14.332 -12.998,24.997 -20.775,23.608Z" style="fill-rule:nonzero;"/></g></svg>