<?xml version="1.0" encoding="UTF-8" standalone="no"?><!DOCTYPE svg PUBLIC "-//W3C//DTD SVG 1.1//EN" "http://www.w3.org/Graphics/SVG/1.1/DTD/svg11.dtd"><svg width="100%" height="100%" viewBox="0 0 1425 1425" version="1.1" xmlns="http://www.w3.org/2000/svg" xmlns:xlink="http://www.w3.org/1999/xlink" xml:space="preserve" xmlns:serif="http://www.serif.com/" style="fill-rule:evenodd;clip-rule:evenodd;stroke-linejoin:round;stroke-miterlimit:2;"><g id="Artwork"><g><circle cx="712.083" cy="712.083" r="712.083" style="fill:#ff4500;"/><path d="M1186.81,712.083c-0,-57.466 -46.64,-104.105 -104.106,-104.105c-28.317,-0 -53.302,10.827 -71.625,29.149c-70.792,-50.803 -169.068,-84.117 -277.338,-88.281l47.473,-222.37l154.076,32.481c1.666,39.143 34.147,70.792 74.123,70.792c40.81,-0 74.124,-33.314 74.124,-74.124c-0,-40.809 -33.314,-74.123 -74.124,-74.123c-29.149,-0 -54.135,16.657 -65.794,41.642l-172.4,-36.645c-4.997,-0.833 -9.994,0 -14.158,2.499c-4.164,2.498 -6.663,6.662 -8.328,11.659l-52.47,248.189c-110.768,3.331 -209.877,35.812 -281.502,88.281c-18.322,-17.49 -44.141,-29.149 -71.624,-29.149c-57.467,-0 -104.106,46.639 -104.106,104.105c-0,42.475 24.985,78.288 61.63,94.945c-1.665,9.994 -2.498,20.821 -2.498,31.648c-0,159.906 185.725,288.997 415.59,288.997c229.866,0 415.59,-129.091 415.59,-288.997c0,-10.827 -0.833,-20.821 -2.498,-30.815c34.146,-16.657 59.965,-53.303 59.965,-95.778Zm-712.084,74.124c0,-40.81 33.314,-74.124 74.124,-74.124c40.809,0 74.123,33.314 74.123,74.124c-0,40.809 -33.314,74.123 -74.123,74.123c-40.81,-0 -74.124,-33.314 -74.124,-74.123Zm413.925,195.718c-50.804,50.804 -147.414,54.135 -175.731,54.135c-28.317,0 -125.76,-4.164 -175.73,-54.135c-7.496,-7.495 -7.496,-19.988 -0,-27.483c7.495,-7.496 19.988,-7.496 27.484,-0c31.648,31.648 99.941,43.308 149.079,43.308c49.138,-0 116.598,-11.66 149.079,-43.308c7.496,-7.496 19.989,-7.496 27.484,-0c5.83,8.328 5.83,19.988 -1.665,27.483Zm-13.326,-121.595c-40.809,-0 -74.123,-33.314 -74.123,-74.123c-0,-40.81 33.314,-74.124 74.123,-74.124c40.81,0 74.123,33.314 74.123,74.124c0,40.809 -33.313,74.123 -74.123,74.123Z" style="fill:#fff;fill-rule:nonzero;"/></g></g></svg>